HIERARCHY
ROOT Hips
{
    OFFSET 0.000000 0.000000 0.000000
    CHANNELS 6 Xposition Yposition Zposition Zrotation Xrotation Yrotation
    JOINT Spine
    {
        OFFSET -0.000000 0.068295 0.000000
        CHANNELS 3 Zrotation Xrotation Yrotation
        JOINT Spine1
        {
            OFFSET -0.000000 0.198479 0.000000
            CHANNELS 3 Zrotation Xrotation Yrotation
            JOINT Neck
            {
                OFFSET -0.000000 0.215136 0.000000
                CHANNELS 3 Zrotation Xrotation Yrotation
                JOINT Head
                {
                    OFFSET -0.000000 0.090366 0.016657
                    CHANNELS 3 Zrotation Xrotation Yrotation
                    End Site
                    {
                        OFFSET -0.000000 0.166573 0.000000
                    }
                }
            }
            JOINT LeftShoulder
            {
                OFFSET 0.033522 0.175145 -0.001055
                CHANNELS 3 Zrotation Xrotation Yrotation
                JOINT LeftArm
                {
                    OFFSET 0.121214 0.000000 0.000000
                    CHANNELS 3 Zrotation Xrotation Yrotation
                    JOINT LeftForeArm
                    {
                        OFFSET 0.261115 0.000000 0.000000
                        CHANNELS 3 Zrotation Xrotation Yrotation
                        JOINT LeftHand
                        {
                            OFFSET 0.230096 0.000000 0.000000
                            CHANNELS 3 Zrotation Xrotation Yrotation
                            End Site
                            {
                                OFFSET 0.000000 -0.124930 0.000000
                            }
                        }
                    }
                }
            }
            JOINT RightShoulder
            {
                OFFSET -0.033103 0.175145 -0.001055
                CHANNELS 3 Zrotation Xrotation Yrotation
                JOINT RightArm
                {
                    OFFSET -0.121214 0.000000 0.000000
                    CHANNELS 3 Zrotation Xrotation Yrotation
                    JOINT RightForeArm
                    {
                        OFFSET -0.261115 0.000000 0.000000
                        CHANNELS 3 Zrotation Xrotation Yrotation
                        JOINT RightHand
                        {
                            OFFSET -0.230096 0.000000 0.000000
                            CHANNELS 3 Zrotation Xrotation Yrotation
                            End Site
                            {
                                OFFSET -0.000000 -0.124930 0.000000
                            }
                        }
                    }
                }
            }
        }
    }
    JOINT LeftUpLeg
    {
        OFFSET 0.083287 0.000000 0.000000
        CHANNELS 3 Zrotation Xrotation Yrotation
        JOINT LeftLeg
        {
            OFFSET -0.000000 -0.281128 0.000000
            CHANNELS 3 Zrotation Xrotation Yrotation
            JOINT LeftFoot
            {
                OFFSET -0.000000 -0.491911 0.000000
                CHANNELS 3 Zrotation Xrotation Yrotation
                JOINT LeftToeBase
                {
                    OFFSET -0.000000 -0.054136 0.124930
                    CHANNELS 3 Zrotation Xrotation Yrotation
                    End Site
                    {
                        OFFSET -0.000000 0.000000 0.033315
                    }
                }
            }
        }
    }
    JOINT RightUpLeg
    {
        OFFSET -0.083287 0.000000 0.000000
        CHANNELS 3 Zrotation Xrotation Yrotation
        JOINT RightLeg
        {
            OFFSET -0.000000 -0.281128 0.000000
            CHANNELS 3 Zrotation Xrotation Yrotation
            JOINT RightFoot
            {
                OFFSET -0.000000 -0.491911 0.000000
                CHANNELS 3 Zrotation Xrotation Yrotation
                JOINT RightToeBase
                {
                    OFFSET -0.000000 -0.054136 0.124930
                    CHANNELS 3 Zrotation Xrotation Yrotation
                    End Site
                    {
                        OFFSET -0.000000 0.000000 0.033315
                    }
                }
            }
        }
    }
}
MOTION
Frames:    8
Frame Time:    0.010000
-0.289502    0.790252    0.046818    -9.631611    -0.974704    -102.554794    -6.648998    6.458197    0.889550    3.506474    13.461094    -0.239248    -0.974934    -11.680470    7.216282    3.780167    -2.301725    7.020169    -5.037724    8.512027    -0.917666    -59.505466    40.117874    -17.759399    2.979243    -4.401054    -11.400784    98.448097    -5.118906    4.482621    0.202293    4.860372    6.000448    61.865387    46.906460    17.708076    -2.824468    -3.841131    10.710683    -102.506821    -7.770156    -4.429757    -5.893706    -2.961311    2.597955    0.546476    17.960987    -4.594108    9.967648    -23.174393    43.226250    0.000000    0.000000    0.000000    -5.630448    3.225833    -3.574605    -5.133982    51.979183    -1.929100    -2.113843    -23.559158    -24.656900    0.000000    0.000000    0.000000    
-0.294068    0.790953    0.048131    -9.713798    -0.911204    -102.570663    -6.744059    6.636098    0.628177    3.580757    13.434424    -0.339269    -0.956452    -11.833643    7.410346    3.753190    -2.691901    7.238434    -4.880867    8.252638    -1.012868    -59.334606    40.201546    -17.694204    3.196265    -4.595240    -11.505508    98.575783    -5.023669    4.650894    0.679677    4.818511    5.216681    60.558949    47.463158    18.740143    -2.616142    -3.766207    10.909030    -102.672256    -7.653290    -4.368096    -6.064227    -2.294297    2.599846    0.569437    17.570499    -4.637566    10.028111    -23.120712    43.399921    0.000000    0.000000    0.000000    -5.326763    1.718977    -3.272131    -5.493933    53.827751    -1.274102    -2.232102    -23.428148    -24.828800    0.000000    0.000000    0.000000    
-0.298629    0.791703    0.049444    -9.846288    -0.845589    -102.645782    -6.912736    6.851775    0.407005    3.759827    13.396561    -0.438025    -0.992033    -12.102715    7.586752    3.830455    -2.759512    7.416548    -4.874075    8.138124    -1.081629    -59.008766    40.040779    -17.723894    3.305717    -4.325270    -11.639930    99.446411    -4.492971    4.360383    0.655091    4.720950    5.248780    60.508892    47.261509    18.713957    -2.516926    -3.627273    11.291644    -102.535698    -7.364057    -4.188959    -6.051822    -1.675862    2.407719    0.200105    17.365320    -4.494089    10.183270    -22.952856    43.718163    0.000000    0.000000    0.000000    -5.154599    0.289324    -2.565615    -5.008141    55.561214    -0.924898    -2.196566    -23.561968    -24.979488    0.000000    0.000000    0.000000    
-0.303330    0.792326    0.050500    -10.054213    -0.708177    -102.673569    -7.012768    7.077642    0.156186    3.929250    13.491575    -0.554400    -1.027691    -12.297294    7.731481    3.807491    -3.051509    7.579318    -4.841992    8.069816    -1.158761    -58.663544    39.934612    -17.828388    3.573085    -4.376446    -11.805568    99.844231    -4.367552    4.384090    0.112386    4.476935    6.037544    61.668205    47.469154    17.937607    -3.142569    -4.077654    11.322263    -102.575096    -7.485681    -4.592905    -6.226563    -0.779556    2.498144    0.334484    16.840387    -4.563568    10.127702    -23.074387    43.688381    0.000000    0.000000    0.000000    -3.922983    -0.993040    -2.982688    -8.067779    56.817856    0.245684    -0.696112    -23.833292    -22.984760    0.000000    0.000000    0.000000    
-0.307785    0.793040    0.051584    -10.174346    -0.598490    -102.692619    -7.112484    7.229874    -0.100724    4.095946    13.525117    -0.666039    -1.039611    -12.480583    7.888459    3.873162    -3.273211    7.743998    -4.801604    8.012076    -1.291252    -58.310215    39.935966    -17.915854    3.805444    -4.570912    -11.956369    100.093582    -4.436775    4.565310    0.759147    4.178213    5.253057    60.497673    47.562679    18.453003    -2.649934    -3.661810    11.747593    -102.608109    -7.486857    -4.218073    -6.256598    -0.125630    2.289398    0.135416    16.565762    -4.597945    9.994702    -22.909355    43.788387    0.000000    0.000000    0.000000    -3.325520    -1.125323    -2.804998    -8.844467    56.301811    0.630191    0.466084    -25.664932    -19.807165    0.000000    0.000000    0.000000    
-0.312128    0.793862    0.052377    -10.093485    -0.387637    -102.585983    -7.070717    7.142174    -0.475523    4.324152    13.707837    -0.822053    -1.079037    -12.708005    8.078908    3.891844    -3.583345    7.951130    -4.673461    7.890833    -1.366023    -58.119507    39.870293    -17.968721    4.028812    -4.740376    -12.177995    100.343132    -4.457365    4.715244    0.628831    4.066726    5.139663    60.402477    47.534237    18.671890    -2.678292    -3.572889    11.967717    -102.590416    -7.439905    -4.114673    -5.369230    -0.006416    0.957449    -1.582616    16.904619    -3.794652    10.678262    -22.458803    44.753578    0.000000    0.000000    0.000000    -3.970300    -2.025477    -2.233449    -5.669282    56.785976    -1.072613    0.278003    -26.441710    -18.659042    0.000000    0.000000    0.000000    
-0.316367    0.794594    0.053338    -10.175542    -0.268466    -102.617882    -7.148219    7.236976    -0.719190    4.525815    13.850111    -0.936905    -1.111105    -13.006984    8.213276    3.913075    -3.831244    8.099030    -4.670047    7.830943    -1.474092    -57.780823    39.763580    -18.039673    4.265194    -4.771620    -12.447947    100.732536    -4.449010    4.725689    -0.090415    4.169973    5.903071    61.522808    46.788345    18.126162    -2.947177    -3.623672    12.176891    -102.929779    -8.001621    -4.218139    -5.504119    0.629951    1.136515    -1.406032    16.565367    -3.898640    10.419296    -22.618353    44.381718    0.000000    0.000000    0.000000    -3.967369    -2.911233    -2.459301    -5.533191    57.079128    -1.148145    0.817665    -27.054237    -16.921906    0.000000    0.000000    0.000000    
-0.320541    0.795244    0.054004    -10.182107    -0.105993    -102.611137    -7.184672    7.217321    -0.981367    4.686664    14.051745    -1.052571    -0.995939    -13.180166    8.319427    3.883599    -4.338069    8.232278    -4.505829    7.723146    -1.553311    -57.575836    39.716915    -18.081516    4.616052    -5.499738    -12.822758    99.620598    -4.849989    5.391164    -0.153605    4.076721    5.945150    61.493633    47.226936    18.293301    -3.322866    -4.050992    12.148662    -102.946648    -8.296504    -4.641245    -5.549048    1.175268    1.140230    -1.277268    16.257418    -3.985908    11.521129    -22.507341    46.179607    0.000000    0.000000    0.000000    -2.904204    -4.329091    -2.028712    -6.335193    57.953255    -0.732817    1.120798    -26.874372    -17.230862    0.000000    0.000000    0.000000    
